PathFileType	4	(X/Y/Z)	/home/nbianco/projects/addbio/data/HamnerRunning2013/Processed/subject01//results/MarkerData/run500.trc
DataRate	CameraRate	NumFrames	NumMarkers	Units	OrigDataRate	OrigDataStartFrame	OrigNumFrames
100	100	9	42	m	100	46	186
Frame#	Time	C7			CLAV			LACR			LASI			LCAL			LFAradius			LFAsuperior			LFAulna			LLEL			LMEL			LMT5			LPSI			LTB1			LTB2			LTB3			LTH1			LTH2			LTH3			LTOE			LUA1			LUA2			LUA3			RACR			RASI			RCAL			RFAradius			RFAsuperior			RFAulna			RLEL			RMEL			RMT5			RPSI			RTB1			RTB2			RTB3			RTH1			RTH2			RTH3			RTOE			RUA1			RUA2			RUA3		
		X1	Y1	Z1	X2	Y2	Z2	X3	Y3	Z3	X4	Y4	Z4	X5	Y5	Z5	X6	Y6	Z6	X7	Y7	Z7	X8	Y8	Z8	X9	Y9	Z9	X10	Y10	Z10	X11	Y11	Z11	X12	Y12	Z12	X13	Y13	Z13	X14	Y14	Z14	X15	Y15	Z15	X16	Y16	Z16	X17	Y17	Z17	X18	Y18	Z18	X19	Y19	Z19	X20	Y20	Z20	X21	Y21	Z21	X22	Y22	Z22	X23	Y23	Z23	X24	Y24	Z24	X25	Y25	Z25	X26	Y26	Z26	X27	Y27	Z27	X28	Y28	Z28	X29	Y29	Z29	X30	Y30	Z30	X31	Y31	Z31	X32	Y32	Z32	X33	Y33	Z33	X34	Y34	Z34	X35	Y35	Z35	X36	Y36	Z36	X37	Y37	Z37	X38	Y38	Z38	X39	Y39	Z39	X40	Y40	Z40	X41	Y41	Z41	X42	Y42	Z42

47	1.01	0.922747	1.52184	-0.364584	1.04515	1.45344	-0.321432	0.985968	1.49536	-0.521572	1.00101	1.00355	-0.48358	0.456379	0.18039	-0.328246	1.08872	1.17569	-0.54203	0.92455	1.14012	-0.631755	1.09368	1.11222	-0.574721	0.849479	1.17773	-0.638697	0.82605	1.15963	-0.545561	0.59404	0.0428251	-0.410192	0.847013	1.07561	-0.414438	0.799839	0.373242	-0.384331	0.666274	0.333561	-0.429736	0.644141	0.220309	-0.361133	0.924915	0.873951	-0.527089	0.815836	0.738961	-0.481478	0.838117	0.597614	-0.467822	0.661264	0.0630487	-0.320283	0.895708	1.39055	-0.579341	0.929973	1.31294	-0.59655	0.862624	1.24248	-0.620094	0.984038	1.48882	-0.194885	1.00115	1.00452	-0.229214	0.735686	0.474122	-0.251517	0.914252	1.08173	-0.0769112	0.78742	1.1947	-0.0127294	0.869242	1.05481	-0.0336944	0.727148	1.28652	-0.0311094	0.726209	1.24866	-0.113049	0.80174	0.285079	-0.181742	0.842292	1.06937	-0.30009	1.09351	0.476339	-0.26948	1.01953	0.526938	-0.194676	0.909995	0.424666	-0.266108	0.945361	0.901678	-0.176184	0.983236	0.759933	-0.201327	1.11825	0.667335	-0.201368	0.838537	0.254826	-0.277525	0.851123	1.42789	-0.14236	0.87329	1.36818	-0.0953305	0.779819	1.32563	-0.0595772
48	1.02	0.922677	1.52741	-0.364658	1.04348	1.45981	-0.319521	0.988801	1.50239	-0.520238	1.00825	1.00678	-0.484957	0.423131	0.200783	-0.335322	1.09427	1.19899	-0.537982	0.934952	1.15069	-0.629539	1.10416	1.13495	-0.568227	0.858403	1.18304	-0.638948	0.829054	1.16739	-0.543109	0.546527	0.04649	-0.411874	0.853653	1.07911	-0.418312	0.765952	0.384222	-0.387938	0.63197	0.347923	-0.43361	0.609203	0.233047	-0.366467	0.927352	0.875561	-0.526127	0.806587	0.749964	-0.482135	0.817998	0.607743	-0.468569	0.613612	0.0623399	-0.321332	0.900391	1.39698	-0.580006	0.936633	1.31971	-0.59619	0.870988	1.24824	-0.620917	0.979979	1.49516	-0.194748	1.00328	1.01348	-0.228238	0.765311	0.437695	-0.254716	0.900753	1.09531	-0.0790568	0.773015	1.20876	-0.0183695	0.854786	1.06849	-0.0365329	0.714207	1.30056	-0.0384188	0.715019	1.26281	-0.120665	0.854657	0.257817	-0.186516	0.844841	1.07584	-0.303461	1.12065	0.484404	-0.271589	1.04071	0.525341	-0.196992	0.943305	0.410177	-0.268584	0.947912	0.912136	-0.172826	0.99202	0.770672	-0.199715	1.12975	0.683808	-0.201221	0.895305	0.233513	-0.28209	0.845466	1.43884	-0.145761	0.864927	1.3776	-0.0979826	0.769401	1.33794	-0.0649783
49	1.03	0.922892	1.53239	-0.36498	1.0423	1.46557	-0.317802	0.991697	1.50914	-0.518819	1.01548	1.00984	-0.485856	0.395087	0.223462	-0.343566	1.09806	1.22141	-0.534263	0.944445	1.16124	-0.627921	1.11278	1.15721	-0.56252	0.866844	1.18861	-0.639849	0.833485	1.17453	-0.542468	0.501314	0.0527149	-0.414868	0.860308	1.08244	-0.421608	0.735937	0.397758	-0.392238	0.601501	0.364453	-0.437775	0.578629	0.247654	-0.372644	0.929255	0.878059	-0.525768	0.798931	0.762352	-0.482318	0.799882	0.619883	-0.469301	0.567135	0.0630932	-0.323057	0.905185	1.40345	-0.580903	0.942984	1.32659	-0.596195	0.878473	1.25457	-0.622176	0.976308	1.50095	-0.194961	1.00563	1.02199	-0.226589	0.799027	0.400076	-0.259348	0.888541	1.10861	-0.0815074	0.759596	1.22219	-0.0244126	0.841301	1.08166	-0.0400944	0.702418	1.31418	-0.0461813	0.704966	1.27669	-0.128681	0.90988	0.232242	-0.191337	0.847769	1.08218	-0.306496	1.14611	0.491595	-0.272894	1.06091	0.522324	-0.19921	0.979015	0.395398	-0.271441	0.951245	0.922113	-0.17004	0.999511	0.780883	-0.197901	1.13873	0.698125	-0.201058	0.954428	0.214579	-0.287104	0.840497	1.44901	-0.149661	0.8572	1.3868	-0.100919	0.759931	1.35014	-0.0707598
50	1.04	0.923382	1.53646	-0.365661	1.04172	1.4704	-0.316249	0.994774	1.51532	-0.5175	1.02181	1.01285	-0.48586	0.373414	0.2482	-0.353346	1.10044	1.24223	-0.530913	0.953137	1.17158	-0.626979	1.1197	1.17827	-0.557501	0.874776	1.19414	-0.641262	0.839898	1.18042	-0.543884	0.458277	0.0622555	-0.419017	0.866113	1.0857	-0.423869	0.710498	0.412471	-0.396088	0.57583	0.381861	-0.442047	0.552639	0.263171	-0.379168	0.930154	0.8815	-0.52575	0.792835	0.775085	-0.481609	0.784236	0.632886	-0.469663	0.521601	0.066298	-0.325417	0.909995	1.40957	-0.581892	0.948939	1.33323	-0.596624	0.884851	1.26111	-0.623882	0.973032	1.50589	-0.195529	1.00795	1.02928	-0.224465	0.836845	0.362151	-0.265557	0.877763	1.12134	-0.0840353	0.747296	1.23469	-0.0306915	0.829033	1.09382	-0.044589	0.691814	1.32695	-0.0541023	0.696022	1.28975	-0.136796	0.96677	0.208856	-0.19636	0.850831	1.08815	-0.308692	1.16969	0.497529	-0.273327	1.08004	0.51775	-0.201318	1.01657	0.380771	-0.274576	0.95506	0.931254	-0.167752	1.00499	0.789757	-0.196675	1.14459	0.709592	-0.201564	1.01531	0.198413	-0.292265	0.836085	1.45787	-0.154371	0.850055	1.39564	-0.104033	0.75126	1.36188	-0.0767048
51	1.05	0.924111	1.5396	-0.366654	1.04159	1.47423	-0.314863	0.997996	1.52062	-0.516449	1.02677	1.01587	-0.484657	0.358427	0.274379	-0.36454	1.10172	1.26072	-0.527896	0.961022	1.18139	-0.626632	1.12521	1.19745	-0.553037	0.882197	1.19923	-0.643107	0.847457	1.18503	-0.546819	0.41689	0.0756798	-0.423491	0.870544	1.08899	-0.424899	0.689919	0.426595	-0.39874	0.555557	0.398509	-0.446501	0.530748	0.278527	-0.385452	0.930157	0.885559	-0.525682	0.788344	0.78682	-0.480087	0.771676	0.645303	-0.46968	0.476865	0.0733375	-0.328106	0.914645	1.41484	-0.582791	0.954466	1.33918	-0.597437	0.890337	1.26716	-0.626007	0.970238	1.50982	-0.1963	1.00994	1.03485	-0.222445	0.878211	0.324692	-0.273038	0.868622	1.13313	-0.0865123	0.736303	1.24591	-0.0370808	0.818328	1.10463	-0.049931	0.682476	1.33841	-0.0619783	0.688259	1.30142	-0.144762	1.02476	0.188326	-0.202047	0.853684	1.09343	-0.309771	1.19108	0.501996	-0.273542	1.09827	0.511221	-0.203544	1.05462	0.366629	-0.278023	0.958308	0.938765	-0.165826	1.00775	0.796373	-0.196788	1.14692	0.717634	-0.203308	1.07692	0.185565	-0.297621	0.83222	1.46522	-0.159811	0.843612	1.40381	-0.107247	0.743354	1.37272	-0.082677
52	1.06	0.9251	1.54209	-0.367784	1.04168	1.47718	-0.313704	1.00128	1.52485	-0.515795	1.03028	1.01889	-0.482324	0.348009	0.301324	-0.376561	1.10213	1.27624	-0.525115	0.968097	1.19008	-0.626709	1.12961	1.21411	-0.549092	0.889161	1.20343	-0.645408	0.854956	1.18853	-0.550511	0.377333	0.0933577	-0.427342	0.873503	1.09227	-0.424842	0.67403	0.438599	-0.40002	0.540633	0.413185	-0.451236	0.511691	0.293394	-0.390867	0.929961	0.889678	-0.525278	0.785661	0.796354	-0.478393	0.762931	0.655609	-0.469627	0.433489	0.0858822	-0.330522	0.919204	1.41889	-0.583668	0.95964	1.34404	-0.598503	0.895457	1.27203	-0.628455	0.968057	1.51283	-0.197034	1.0113	1.03874	-0.221061	0.922159	0.28827	-0.280995	0.86131	1.14357	-0.0889086	0.72687	1.25553	-0.0434703	0.809534	1.11392	-0.0556869	0.674549	1.34816	-0.0697425	0.6819	1.31121	-0.152425	1.08326	0.171219	-0.208778	0.855957	1.09774	-0.309885	1.2098	0.504789	-0.274471	1.11584	0.5022	-0.205996	1.09191	0.353118	-0.281991	0.960048	0.943796	-0.164395	1.0077	0.800271	-0.198208	1.14607	0.722087	-0.20601	1.13765	0.176523	-0.303706	0.82904	1.47106	-0.165451	0.838132	1.41085	-0.110519	0.736377	1.3822	-0.0886763
53	1.07	0.926407	1.54426	-0.368808	1.04189	1.47949	-0.312813	1.00452	1.52795	-0.51555	1.0325	1.02174	-0.479301	0.338023	0.328783	-0.388692	1.10202	1.28824	-0.522391	0.974489	1.19696	-0.627004	1.13319	1.22761	-0.545595	0.89574	1.20642	-0.648098	0.861761	1.19097	-0.554408	0.34119	0.115339	-0.430311	0.875169	1.09536	-0.424125	0.662223	0.44776	-0.400058	0.530279	0.425804	-0.456085	0.493992	0.308536	-0.39499	0.930438	0.893231	-0.524439	0.785036	0.802893	-0.477424	0.758669	0.662496	-0.469707	0.39308	0.105184	-0.332107	0.92389	1.42166	-0.584737	0.964579	1.34756	-0.599652	0.900708	1.27532	-0.631034	0.966602	1.51508	-0.197517	1.01167	1.04139	-0.22043	0.967596	0.253481	-0.288548	0.855979	1.15224	-0.091286	0.719318	1.26325	-0.0497075	0.802957	1.12151	-0.0612975	0.668195	1.35591	-0.0773596	0.677197	1.31875	-0.159662	1.14152	0.157406	-0.216747	0.857341	1.10091	-0.309464	1.22524	0.505586	-0.276481	1.13263	0.490351	-0.208417	1.12764	0.34025	-0.286681	0.959863	0.946088	-0.163632	1.00549	0.801816	-0.199814	1.14314	0.723332	-0.208567	1.19566	0.171184	-0.31119	0.826721	1.47547	-0.170507	0.833866	1.4163	-0.113785	0.730625	1.38998	-0.094768
54	1.08	0.928025	1.54631	-0.369501	1.04228	1.48131	-0.312128	1.00762	1.53005	-0.515561	1.03371	1.02417	-0.476178	0.325338	0.357128	-0.400281	1.10186	1.29627	-0.519481	0.980363	1.20147	-0.627308	1.13618	1.23722	-0.54234	0.901917	1.2082	-0.65086	0.867883	1.19235	-0.558179	0.310366	0.141306	-0.433129	0.875823	1.09806	-0.423318	0.653717	0.454216	-0.39916	0.523323	0.437429	-0.46058	0.476954	0.325128	-0.397982	0.932186	0.895623	-0.523182	0.786561	0.806093	-0.477731	0.75911	0.665258	-0.469783	0.357584	0.131055	-0.333071	0.928729	1.42331	-0.586049	0.969335	1.34979	-0.600712	0.906262	1.27707	-0.633468	0.965906	1.51679	-0.197646	1.01088	1.0434	-0.220308	1.01338	0.221331	-0.295093	0.852739	1.15879	-0.0937179	0.713974	1.26883	-0.0555601	0.798827	1.12722	-0.0663159	0.66354	1.36144	-0.0846619	0.674269	1.32378	-0.166279	1.19839	0.14586	-0.226073	0.857707	1.10297	-0.30893	1.23683	0.504029	-0.279079	1.14798	0.475917	-0.210391	1.16124	0.328031	-0.291977	0.957832	0.946322	-0.163293	1.00208	0.801907	-0.200239	1.1391	0.722032	-0.209975	1.24932	0.168591	-0.320371	0.82532	1.47856	-0.174321	0.830909	1.41992	-0.116867	0.726369	1.39579	-0.100899
55	1.09	0.929837	1.54816	-0.369753	1.04292	1.48263	-0.311528	1.01044	1.53136	-0.51557	1.03417	1.02587	-0.473484	0.310839	0.387023	-0.410622	1.10224	1.30002	-0.516206	0.985699	1.20345	-0.627429	1.13879	1.24225	-0.539113	0.9075	1.20903	-0.653219	0.873417	1.19278	-0.561538	0.285159	0.170913	-0.437106	0.875752	1.10004	-0.422946	0.648019	0.458495	-0.397937	0.518888	0.449509	-0.464211	0.461251	0.343652	-0.400678	0.935356	0.896392	-0.521616	0.790044	0.806028	-0.479088	0.763695	0.664111	-0.469432	0.327931	0.161558	-0.334816	0.933402	1.42414	-0.587361	0.973798	1.351	-0.601501	0.911846	1.27768	-0.635438	0.965902	1.51798	-0.197456	1.00904	1.04525	-0.220451	1.05798	0.19327	-0.300217	0.851676	1.16303	-0.0961556	0.711062	1.27211	-0.0607331	0.797259	1.13085	-0.0704559	0.660622	1.36459	-0.0912756	0.673068	1.32619	-0.171956	1.25198	0.135459	-0.236832	0.857201	1.10402	-0.308642	1.24425	0.49999	-0.281531	1.161	0.45988	-0.211775	1.19187	0.31659	-0.297348	0.954546	0.945842	-0.162755	0.998087	0.801257	-0.199185	1.13383	0.718588	-0.210144	1.29725	0.167375	-0.331065	0.824709	1.4804	-0.176686	0.829173	1.42177	-0.11949	0.723716	1.39939	-0.106738
